<svg xmlns="http://www.w3.org/2000/svg" version="1.0" width="512.000000" height="512.000000" preserveAspectRatio="xMidYMid meet" style=""><rect id="backgroundrect" width="100%" height="100%" x="0" y="0" fill="none" stroke="none"/>


<g class="currentLayer" style=""><title>Layer 1</title><g transform="translate(0,512) scale(0.10000000149011612,-0.10000000149011612) " fill="#eef5ff" stroke="none" id="svg_1" class="selected" fill-opacity="1">
<path d="M4053 4850 c-40 -16 -43 -38 -43 -308 l0 -259 -70 5 c-115 8 -206 -44 -251 -142 -22 -49 -25 -152 -5 -200 68 -164 284 -206 410 -80 66 65 76 106 76 301 0 90 3 163 7 163 5 0 113 -32 240 -72 l233 -72 0 -53 c0 -52 -1 -54 -22 -47 -68 21 -167 0 -234 -51 -111 -85 -110 -290 2 -384 137 -113 344 -52 402 118 8 24 12 158 12 436 0 369 -1 405 -18 424 -13 17 -102 49 -352 126 -184 58 -342 104 -350 104 -8 0 -25 -4 -37 -9z" id="svg_2" fill="#eef5ff" fill-opacity="1"/>
<path d="M2622 4529 c-74 -14 -148 -73 -177 -142 l-12 -28 -159 -4 c-178 -4 -263 -15 -408 -51 -437 -108 -833 -426 -1040 -834 -126 -250 -176 -464 -176 -763 l0 -180 -157 -241 c-86 -133 -162 -257 -169 -276 -26 -70 -14 -145 33 -212 22 -33 51 -52 162 -106 l136 -67 23 -130 c66 -381 73 -410 107 -483 61 -128 180 -231 322 -279 37 -12 111 -17 320 -22 263 -6 273 -7 294 -28 17 -17 31 -63 60 -200 33 -155 41 -181 64 -200 l26 -23 783 0 c777 0 784 0 810 21 37 29 35 54 -25 335 -60 286 -68 377 -45 494 26 126 56 188 241 490 196 322 252 429 305 589 99 295 110 642 29 941 -102 381 -347 723 -676 943 l-93 62 7 67 c9 98 -9 151 -71 213 -32 31 -66 55 -91 62 -33 10 -147 28 -355 57 -14 1 -44 -1 -68 -5z m297 -189 c93 -14 131 -38 131 -84 0 -24 -174 -1219 -186 -1277 l-5 -26 -57 23 c-98 40 -193 57 -303 52 -80 -3 -99 -1 -99 10 0 32 180 1240 190 1275 8 28 19 42 41 51 31 13 46 12 288 -24z m-260 -1485 c93 -22 177 -71 251 -145 316 -315 135 -848 -310 -912 -149 -22 -314 31 -429 138 -138 127 -202 307 -172 480 55 314 352 511 660 439z m-1548 -307 c52 -27 72 -32 133 -33 62 0 80 4 138 34 60 31 69 33 96 22 38 -16 59 -62 46 -99 -19 -53 -136 -110 -245 -119 -138 -12 -300 57 -315 134 -5 27 -1 37 24 63 17 16 37 30 46 30 9 0 43 -14 77 -32z" id="svg_3" fill="#eef5ff" fill-opacity="1"/>
</g></g></svg>